<svg width="26" height="26" viewBox="0 0 26 26" fill="none" xmlns="http://www.w3.org/2000/svg">
<rect width="26" height="26" rx="13" fill="#2374EE"/>
<path d="M18.625 9.25H15.8125V8.78125C15.8125 8.40829 15.6643 8.0506 15.4006 7.78688C15.1369 7.52316 14.7792 7.375 14.4062 7.375H11.5938C11.2208 7.375 10.8631 7.52316 10.5994 7.78688C10.3357 8.0506 10.1875 8.40829 10.1875 8.78125V9.25H7.375C7.12636 9.25 6.8879 9.34877 6.71209 9.52459C6.53627 9.7004 6.4375 9.93886 6.4375 10.1875V11.8281C6.4375 11.8903 6.46219 11.9499 6.50615 11.9939C6.5501 12.0378 6.60971 12.0625 6.67188 12.0625H9.25V11.1408C9.24807 11.0196 9.29217 10.9023 9.3734 10.8123C9.45464 10.7224 9.56695 10.6666 9.6877 10.6562C9.75181 10.652 9.81612 10.661 9.87663 10.6826C9.93713 10.7043 9.99254 10.7381 10.0394 10.7821C10.0863 10.826 10.1236 10.8791 10.1491 10.9381C10.1746 10.9971 10.1876 11.0607 10.1875 11.125V12.0625H15.8125V11.1408C15.8106 11.0196 15.8547 10.9023 15.9359 10.8123C16.0171 10.7224 16.1295 10.6666 16.2502 10.6562C16.3143 10.652 16.3786 10.661 16.4391 10.6826C16.4996 10.7043 16.555 10.7381 16.6019 10.7821C16.6488 10.826 16.6861 10.8791 16.7116 10.9381C16.7371 10.9971 16.7501 11.0607 16.75 11.125V12.0625H19.3281C19.3903 12.0625 19.4499 12.0378 19.4939 11.9939C19.5378 11.9499 19.5625 11.8903 19.5625 11.8281V10.1875C19.5625 9.93886 19.4637 9.7004 19.2879 9.52459C19.1121 9.34877 18.8736 9.25 18.625 9.25ZM14.875 9.25H11.125V8.78125C11.125 8.65693 11.1744 8.5377 11.2623 8.44979C11.3502 8.36189 11.4694 8.3125 11.5938 8.3125H14.4062C14.5306 8.3125 14.6498 8.36189 14.7377 8.44979C14.8256 8.5377 14.875 8.65693 14.875 8.78125V9.25ZM19.5625 13.2344V16.75C19.5625 16.9986 19.4637 17.2371 19.2879 17.4129C19.1121 17.5887 18.8736 17.6875 18.625 17.6875H7.375C7.12636 17.6875 6.8879 17.5887 6.71209 17.4129C6.53627 17.2371 6.4375 16.9986 6.4375 16.75V13.2344C6.4375 13.1722 6.46219 13.1126 6.50615 13.0686C6.5501 13.0247 6.60971 13 6.67188 13H9.25V13.9375C9.24986 14.0018 9.26293 14.0654 9.28841 14.1244C9.31388 14.1834 9.35121 14.2365 9.39808 14.2804C9.44496 14.3244 9.50037 14.3582 9.56087 14.3799C9.62138 14.4015 9.68569 14.4105 9.7498 14.4062C9.87055 14.3959 9.98286 14.3401 10.0641 14.2502C10.1453 14.1602 10.1894 14.0429 10.1875 13.9217V13H15.8125V13.9375C15.8124 14.0018 15.8254 14.0654 15.8509 14.1244C15.8764 14.1834 15.9137 14.2365 15.9606 14.2804C16.0075 14.3244 16.0629 14.3582 16.1234 14.3799C16.1839 14.4015 16.2482 14.4105 16.3123 14.4062C16.4328 14.3959 16.545 14.3403 16.6262 14.2506C16.7074 14.1609 16.7516 14.0438 16.75 13.9229V13H19.3281C19.3903 13 19.4499 13.0247 19.4939 13.0686C19.5378 13.1126 19.5625 13.1722 19.5625 13.2344Z" fill="white"/>
</svg>
