<svg width="18" height="28" viewBox="0 0 18 28" fill="none" xmlns="http://www.w3.org/2000/svg">
<path fill-rule="evenodd" clip-rule="evenodd" d="M5.3809 0.853602L16.3849 11.9686C17.4649 12.9326 17.4649 14.4486 16.3849 15.4136L5.3809 26.5306C4.2989 27.5036 2.8959 27.7226 1.9229 26.7496L1.59891 26.3146C0.735906 25.4556 0.629911 24.3746 1.38291 23.6176C4.18991 20.9206 6.89191 18.1126 9.58291 15.4136C10.5599 14.4486 10.5599 12.9316 9.58291 11.9686C6.89191 9.26459 4.18991 6.45661 1.38291 3.76461C0.629911 3.00961 0.736906 1.92459 1.59891 1.06259L1.9229 0.632594C2.8959 -0.337406 4.2989 -0.129398 5.3809 0.853602Z" fill="black"/>
</svg>
