<svg width="26" height="26" viewBox="0 0 26 26" fill="none" xmlns="http://www.w3.org/2000/svg">
<rect width="26" height="26" rx="13" fill="#2374EE"/>
<path d="M15.3438 13C15.3438 13.4636 15.2063 13.9167 14.9488 14.3021C14.6912 14.6875 14.3252 14.9879 13.8969 15.1653C13.4687 15.3427 12.9974 15.3891 12.5428 15.2987C12.0881 15.2083 11.6705 14.9851 11.3427 14.6573C11.0149 14.3295 10.7917 13.9119 10.7013 13.4572C10.6109 13.0026 10.6573 12.5314 10.8347 12.1031C11.0121 11.6748 11.3125 11.3088 11.6979 11.0512C12.0833 10.7937 12.5364 10.6562 13 10.6562C13.6216 10.6562 14.2177 10.9032 14.6573 11.3427C15.0968 11.7823 15.3438 12.3784 15.3438 13ZM20.0312 9.25V16.75C20.0312 16.8743 19.9819 16.9935 19.894 17.0815C19.806 17.1694 19.6868 17.2188 19.5625 17.2188H6.4375C6.31318 17.2188 6.19395 17.1694 6.10604 17.0815C6.01814 16.9935 5.96875 16.8743 5.96875 16.75V9.25C5.96875 9.12568 6.01814 9.00645 6.10604 8.91854C6.19395 8.83064 6.31318 8.78125 6.4375 8.78125H19.5625C19.6868 8.78125 19.806 8.83064 19.894 8.91854C19.9819 9.00645 20.0312 9.12568 20.0312 9.25ZM19.0938 11.9658C18.5615 11.8084 18.0771 11.5204 17.6846 11.1279C17.2921 10.7354 17.0041 10.251 16.8467 9.71875H9.15332C8.99594 10.251 8.7079 10.7354 8.31542 11.1279C7.92295 11.5204 7.43851 11.8084 6.90625 11.9658V14.0342C7.43851 14.1916 7.92295 14.4796 8.31542 14.8721C8.7079 15.2646 8.99594 15.749 9.15332 16.2812H16.8467C17.0041 15.749 17.2921 15.2646 17.6846 14.8721C18.0771 14.4796 18.5615 14.1916 19.0938 14.0342V11.9658Z" fill="white"/>
</svg>
