<svg width="26" height="26" viewBox="0 0 26 26" fill="none" xmlns="http://www.w3.org/2000/svg">
<rect width="26" height="26" rx="13" fill="#2374EE"/>
<path d="M15.8124 17.6429C16.1357 17.5155 16.4491 17.3641 16.7499 17.19V19.5624C16.7499 19.6867 16.7005 19.806 16.6126 19.8939C16.5247 19.9818 16.4054 20.0312 16.2811 20.0312C16.1568 20.0312 16.0376 19.9818 15.9496 19.8939C15.8617 19.806 15.8124 19.6867 15.8124 19.5624V17.6429ZM16.5014 12.4614L13.2202 10.7113C13.1107 10.6553 12.9836 10.6447 12.8664 10.6815C12.7491 10.7184 12.651 10.7999 12.5932 10.9084C12.5354 11.0169 12.5226 11.1437 12.5574 11.2616C12.5923 11.3795 12.672 11.479 12.7795 11.5386L15.5194 12.9999L16.5155 12.4691L16.5014 12.4614ZM20.2514 10.7113L13.2202 6.96125C13.1523 6.92514 13.0767 6.90625 12.9999 6.90625C12.923 6.90625 12.8474 6.92514 12.7795 6.96125L5.74829 10.7113C5.67329 10.7512 5.61057 10.8108 5.56684 10.8837C5.5231 10.9566 5.5 11.0399 5.5 11.1249C5.5 11.2099 5.5231 11.2933 5.56684 11.3662C5.61057 11.439 5.67329 11.4986 5.74829 11.5386L7.37485 12.4064V15.2435C7.37437 15.4737 7.45911 15.696 7.61274 15.8675C8.38032 16.7224 10.1 18.1562 12.9999 18.1562C13.9613 18.1641 14.9157 17.99 15.8124 17.6429V13.1564L15.5194 12.9999L12.9999 14.3435L8.06802 11.7109L6.9647 11.1249L12.9999 7.90637L19.035 11.1249L17.9346 11.7109H17.9311L16.5155 12.4691C16.5868 12.5102 16.6459 12.5694 16.6871 12.6407C16.7282 12.712 16.7499 12.7928 16.7499 12.8751V17.19C17.3611 16.8371 17.9135 16.3909 18.387 15.8675C18.5406 15.696 18.6253 15.4737 18.6249 15.2435V12.4064L20.2514 11.5386C20.3264 11.4986 20.3891 11.439 20.4329 11.3662C20.4766 11.2933 20.4997 11.2099 20.4997 11.1249C20.4997 11.0399 20.4766 10.9566 20.4329 10.8837C20.3891 10.8108 20.3264 10.7512 20.2514 10.7113Z" fill="white"/>
</svg>
